# xmcd
#
# Track frame offsets:
#	182
#	13207
#	27012
#	40192
#	58202
#	74135
#	87005
#	101512
#	124897
#	137770
#	158915
#	174470
#	188875
#	204512
#	222010
#	234985
#
# Disc length: 3307 seconds
#
# Revision: 0
# Processed by: cddbd v1.5.2PL0 Copyright (c) Steve Scherf et al.
# Submitted via: audiograbber 1.83.01
#
DISCID=e00ce910
DTITLE=Muddy Waters - Mannish Boy
DYEAR=1900
DGENRE=Blues
TTITLE0=Forty Days And Fourty Nights
TTITLE1=I'm Ready
TTITLE2=Mannish Boy
TTITLE3=My Home Is In The Delta
TTITLE4=Long Distance
TTITLE5=Louisiana Blues
TTITLE6=Good Morning School Girl
TTITLE7=My Captain
TTITLE8=I'm Your Hoochie Coochie Man
TTITLE9=Cold Weather Blues
TTITLE10=Big Leg Woman
TTITLE11=You Gonna Need My Help
TTITLE12=Country Boy
TTITLE13=Feel Like Going Home
TTITLE14=I Just Wanna Make Love To You
TTITLE15=She Moves Me
EXTD=
EXTT0=
EXTT1=
EXTT2=
EXTT3=
EXTT4=
EXTT5=
EXTT6=
EXTT7=
EXTT8=
EXTT9=
EXTT10=
EXTT11=
EXTT12=
EXTT13=
EXTT14=
EXTT15=
PLAYORDER=
